<?xml version="1.0" standalone="no"?>
<!DOCTYPE svg PUBLIC "-//W3C//DTD SVG 20010904//EN"
 "http://www.w3.org/TR/2001/REC-SVG-20010904/DTD/svg10.dtd">
<svg version="1.0" xmlns="http://www.w3.org/2000/svg"
 width="800.000000pt" height="240.000000pt" viewBox="0 0 800.000000 240.000000"
 preserveAspectRatio="xMidYMid meet">

<g transform="translate(0.000000,240.000000) scale(0.100000,-0.100000)"
fill="#000000" stroke="none">
<path d="M4630 1200 l0 -1200 1685 0 1685 0 0 1200 0 1200 -1685 0 -1685 0 0
-1200z m923 653 c126 -270 259 -594 432 -1058 67 -181 126 -340 130 -352 6
-23 6 -23 -113 -23 l-119 0 -57 163 c-31 89 -62 177 -69 195 l-11 32 -342 0
-342 0 -26 -72 c-15 -40 -46 -127 -69 -193 l-42 -120 -113 -3 c-66 -1 -112 1
-112 7 0 5 13 45 29 88 17 43 70 186 119 318 149 399 305 779 426 1038 l37 77
98 0 98 0 46 -97z m1807 -108 l0 -175 215 0 215 0 0 -90 0 -90 -215 0 -215 0
0 -303 c0 -322 7 -387 50 -447 45 -63 187 -79 315 -36 39 14 71 24 72 23 0 -1
10 -39 21 -85 l19 -83 -26 -14 c-89 -46 -298 -64 -408 -36 -111 28 -185 100
-225 220 -22 65 -23 77 -26 662 l-3 595 88 16 c48 9 96 16 106 17 16 1 17 -14
17 -174z m-476 -170 c43 -7 80 -15 82 -17 2 -3 -4 -44 -13 -92 l-17 -88 -31 6
c-166 29 -238 30 -342 4 l-43 -10 0 -479 0 -479 -105 0 -105 0 0 549 0 548 76
23 c165 49 349 62 498 35z"/>
<path d="M5367 1612 c-60 -132 -237 -589 -237 -613 0 -5 124 -9 275 -9 151 0
275 3 275 6 0 21 -260 677 -274 691 -2 2 -19 -32 -39 -75z"/>
<path d="M1041 2183 c-139 -51 -202 -230 -126 -359 27 -46 92 -100 132 -110
23 -6 23 -9 23 -135 0 -95 -3 -131 -12 -134 -146 -51 -210 -100 -260 -203 -30
-61 -33 -75 -35 -167 l-1 -100 -92 -54 c-75 -44 -95 -52 -109 -43 -63 45 -106
64 -154 69 -100 10 -193 -37 -244 -125 -24 -40 -28 -58 -28 -122 0 -64 4 -82
28 -122 131 -223 463 -133 467 127 l0 50 93 52 93 53 53 -51 c29 -28 78 -63
109 -77 49 -22 71 -26 152 -26 81 0 103 4 152 26 31 14 80 49 109 77 l53 51
93 -53 93 -52 0 -50 c3 -259 336 -350 467 -127 24 40 28 58 28 122 0 64 -4 82
-28 122 -78 134 -249 167 -373 73 -18 -14 -36 -25 -41 -25 -4 0 -48 24 -96 53
l-88 52 -2 105 c-2 99 -4 109 -36 168 -53 97 -128 155 -253 196 -16 5 -18 20
-18 135 0 126 0 129 23 135 40 10 105 64 132 110 69 118 28 272 -90 342 -58
34 -149 41 -214 17z m175 -147 c30 -30 34 -40 34 -86 0 -46 -4 -56 -34 -86
-30 -30 -40 -34 -86 -34 -46 0 -56 4 -86 34 -30 30 -34 40 -34 86 0 75 45 120
120 120 46 0 56 -4 86 -34z m12 -732 c47 -19 98 -68 125 -119 30 -56 30 -164
0 -220 -48 -89 -123 -135 -223 -135 -72 0 -123 19 -168 63 -56 53 -76 102 -76
182 0 52 5 80 21 110 27 50 78 99 123 119 46 20 151 20 198 0z m-762 -518 c30
-30 34 -40 34 -86 0 -75 -45 -120 -120 -120 -46 0 -56 4 -86 34 -50 50 -50
122 0 172 30 30 40 34 86 34 46 0 56 -4 86 -34z m1500 0 c30 -30 34 -40 34
-86 0 -46 -4 -56 -34 -86 -30 -30 -40 -34 -86 -34 -46 0 -56 4 -86 34 -30 30
-34 40 -34 86 0 46 4 56 34 86 30 30 40 34 86 34 46 0 56 -4 86 -34z"/>
<path d="M3170 2111 l-95 -16 -3 -288 -2 -288 -23 7 c-12 3 -34 13 -49 20 -46
23 -149 44 -223 44 -242 0 -432 -156 -491 -405 -24 -97 -24 -289 -1 -375 55
-205 190 -344 390 -397 112 -30 336 -20 530 23 l67 16 0 839 c0 461 -1 838 -2
838 -2 -1 -46 -9 -98 -18z m-182 -747 l77 -39 3 -361 c2 -329 1 -362 -14 -368
-9 -4 -59 -11 -111 -16 -218 -23 -344 33 -420 186 -35 72 -37 82 -41 194 -11
308 106 459 346 446 73 -3 94 -9 160 -42z"/>
<path d="M609 1977 c-140 -97 -236 -207 -313 -356 -71 -138 -99 -255 -100
-422 -1 -121 1 -139 18 -158 21 -24 77 -29 94 -8 5 6 12 82 15 167 5 169 20
236 79 355 64 128 173 252 281 320 54 35 72 66 56 98 -25 47 -66 49 -130 4z"/>
<path d="M1527 1992 c-18 -19 -22 -59 -9 -78 4 -6 32 -27 63 -47 164 -108 282
-268 340 -462 17 -54 22 -104 25 -220 3 -128 6 -151 20 -162 23 -17 55 -16 79
1 41 30 38 260 -5 414 -59 212 -200 408 -380 527 -73 49 -107 55 -133 27z"/>
<path d="M3951 1574 c-177 -48 -316 -196 -368 -394 -23 -89 -23 -291 0 -380
42 -158 125 -270 245 -334 120 -62 260 -85 416 -67 101 12 236 49 236 64 0 13
-20 139 -25 153 -2 8 -22 5 -61 -8 -136 -46 -339 -42 -441 8 -93 45 -157 148
-170 272 l-6 52 393 0 393 0 -6 123 c-14 295 -118 456 -332 512 -73 19 -202
18 -274 -1z m204 -165 c53 -13 128 -75 154 -128 19 -36 41 -125 41 -161 0 -19
-9 -20 -286 -20 l-286 0 7 37 c38 203 193 317 370 272z"/>
<path d="M1515 425 c-33 -20 -96 -47 -140 -62 -73 -25 -94 -27 -240 -27 -180
-1 -249 14 -377 81 -78 41 -115 41 -137 1 -26 -45 -5 -71 101 -122 142 -69
235 -89 403 -90 171 -1 279 23 418 93 111 56 133 84 101 128 -29 39 -59 38
-129 -2z"/>
</g>
</svg>
